<svg xmlns="http://www.w3.org/2000/svg" xlink="http://www.w3.org/1999/xlink" viewBox="0 0 20 21" id="svg3836982760"><path d="M 9.999 18.833 C 5.397 18.833 1.666 15.102 1.666 10.5 C 1.666 5.898 5.397 2.167 9.999 2.167 C 14.602 2.167 18.333 5.898 18.333 10.5 C 18.333 15.102 14.602 18.833 9.999 18.833 Z M 9.999 18 C 14.141 18 17.499 14.642 17.499 10.5 C 17.499 6.358 14.141 3 9.999 3 C 5.857 3 2.499 6.358 2.499 10.5 C 2.499 14.642 5.857 18 9.999 18 Z M 12.621 8.122 C 12.784 7.959 13.048 7.959 13.211 8.122 C 13.373 8.285 13.373 8.549 13.211 8.711 L 9.044 12.878 C 8.881 13.041 8.617 13.041 8.455 12.878 L 6.788 11.211 C 6.625 11.049 6.625 10.785 6.788 10.622 C 6.951 10.459 7.215 10.459 7.377 10.622 L 8.749 11.994 Z" fill="var(--token-aef216eb-ea0a-4bfa-8e05-dbdd54108c78, rgb(26, 94, 255)) /* {&quot;name&quot;:&quot;Accent&quot;} */"/></svg>